<svg xmlns="http://www.w3.org/2000/svg" xmlns:xlink="http://www.w3.org/1999/xlink" fill="currentColor" version="1.1" width="1" height="1" viewBox="0 0 16 16"><defs><clipPath id="master_svg0_1_02817"><rect x="0" y="0" width="16" height="16" rx="0"/></clipPath></defs><g clip-path="url(#master_svg0_1_02817)"><g><path d="M15.2021,14.4L15.2021,7.44959L8.80214,4.24959L8.80214,0L0.802141,4.00214L0.802141,14.4L0,14.4L0,16L16,16L16,14.4L15.2021,14.4ZM5.60214,13.6021L4.00214,13.6021L4.00214,12.0021L5.60214,12.0021L5.60214,13.6021ZM5.60214,10.4021L4.00214,10.4021L4.00214,8.80214L5.60214,8.80214L5.60214,10.4021ZM5.60214,7.20214L4.00214,7.20214L4.00214,5.60214L5.60214,5.60214L5.60214,7.20214ZM12.0021,13.6021L10.4021,13.6021L10.4021,12.0021L12.0021,12.0021L12.0021,13.6021ZM12.0021,10.4021L10.4021,10.4021L10.4021,8.80214L12.0021,8.80214L12.0021,10.4021Z" /></g></g></svg>