<svg xmlns="http://www.w3.org/2000/svg" xmlns:xlink="http://www.w3.org/1999/xlink" fill="currentColor" version="1.1" width="1" height="1" viewBox="0 0 16 16"><g><path d="M10.732,0.242424Q9.23711,0,8,0Q6.76289,0,5.26804,0.242424Q4.39175,0.32,4.39175,0.727273C4.39175,1.53212,5.8866,2.42424,6.76289,2.42424L9.22681,2.42424C10.1031,2.42424,11.5979,1.53212,11.5979,0.727273Q11.6082,0.32,10.732,0.242424ZM9.41237,2.74424L6.59794,2.74424C3.16495,3.30667,0,6.70061,0,10.9867C0,14.623,4.05155,16,8,16C11.9485,16,16,14.5455,16,10.9867C16,6.7103,12.8351,3.31636,9.41237,2.74424ZM10.5773,10.0364C10.9381,10.0364,11.2062,10.3661,11.2062,10.783C11.2062,11.2,10.9381,11.5297,10.5773,11.5297L8.85567,11.5297L8.85567,12.8582C8.85567,13.1879,8.49485,13.44,8.04124,13.44C7.58763,13.44,7.31959,13.1103,7.31959,12.8582L7.31959,11.5297L5.42268,11.5297C5.06186,11.5297,4.79382,11.2,4.79382,10.783C4.79382,10.3661,5.06186,10.0364,5.42268,10.0364L7.31959,10.0364L7.31959,9.2897L5.42268,9.2897C5.06186,9.2897,4.79382,8.96,4.79382,8.54303C4.79382,8.21333,5.06186,7.79636,5.42268,7.79636L7.22681,7.79636L5.3299,6.13818C5.10309,5.92485,5.1134,5.57576,5.34021,5.36242C5.36082,5.34303,5.39175,5.32364,5.41237,5.30424C5.68041,5.05212,6.13402,5.05212,6.31959,5.30424L8.04124,6.88485L9.76289,5.30424C10.0412,5.05212,10.4742,5.05212,10.7629,5.30424C11.0309,5.55636,11.1237,5.97333,10.8557,6.13818L8.95876,7.79636L10.5876,7.79636C10.9485,7.79636,11.2165,8.12606,11.2165,8.54303C11.2165,8.87273,10.9485,9.2897,10.5876,9.2897L8.78351,9.2897L8.78351,10.0364L10.5773,10.0364Z"/></g></svg>