<svg xmlns="http://www.w3.org/2000/svg" xmlns:xlink="http://www.w3.org/1999/xlink" fill="currentColor" version="1.1" width="1" height="1" viewBox="0 0 16 16"><defs><clipPath id="master_svg0_1_02837"><rect x="0" y="0" width="16" height="16" rx="0"/></clipPath></defs><g clip-path="url(#master_svg0_1_02837)"><g><path d="M12.236015625,2.052001953125L3.792015625,2.052001953125C1.936015625,2.052001953125,0.416015625,3.588001953125,0.416015625,5.468001953125L0.416015625,11.872001953125C0.416015625,13.068001953125,1.344015625,14.008001953125,2.528015625,14.008001953125L2.952015625,14.008001953125L8.020015625,12.300001953125L13.080015625,14.004001953125L13.504015625,14.004001953125C14.688015625,14.004001953125,15.616015625,13.064001953125,15.616015625,11.868001953125L15.616015625,5.468001953125C15.612015625,3.588001953125,14.092015625,2.052002410889,12.236015625,2.052001953125ZM7.540015625,8.384001953125L5.776015625,8.384001953125L5.776015625,10.148001953125L5.068015625,10.148001953125L5.068015625,8.384001953125L3.300015625,8.384001953125L3.300015625,7.676001953125L5.064015625,7.676001953125L5.064015625,5.912001953124999L5.772015625,5.912001953124999L5.772015625,7.676001953125L7.536015625,7.676001953125L7.536015625,8.384001953125L7.540015625,8.384001953125ZM11.628015625,9.280001953125C10.936015625,9.280001953125,10.376015625,8.720001953125,10.376015625,8.028001953124999C10.376015625,7.336001953125,10.936015625,6.776001953125,11.628015625,6.776001953125C12.320015625,6.776001953125,12.880015625,7.336001953125,12.880015625,8.028001953124999C12.880015625,8.720001953125,12.316015625,9.280001953125,11.628015625,9.280001953125Z" /></g></g></svg>