<svg xmlns="http://www.w3.org/2000/svg" xmlns:xlink="http://www.w3.org/1999/xlink" fill="currentColor" version="1.1" width="1" height="1" viewBox="0 0 16 16"><g><path d="M9.71429,16L9.71429,12.2018C9.71429,11.6024,9.20261,11.1166,8.57143,11.1166L7.42857,11.1166C6.79739,11.1166,6.28572,11.6024,6.28571,12.2018L6.28571,16L1.14286,16C0.511675,16,0,15.5141,0,14.9148L0,6.03566C0.0000805664,5.69656,0.167086,5.37699,0.451429,5.17184L7.30857,0.221137C7.71723,-0.0737123,8.28277,-0.0737123,8.69143,0.221137L15.5486,5.17184C15.833,5.37715,16,5.69672,16,6.03566L16,14.9148C16,15.5141,15.4883,16,14.8571,16L9.71429,16Z" /></g></svg>