<svg xmlns="http://www.w3.org/2000/svg" xmlns:xlink="http://www.w3.org/1999/xlink" fill="currentColor" version="1.1" width="1" height="1" viewBox="0 0 16 16"><defs><clipPath id="master_svg0_1_02869"><rect x="0" y="0" width="16" height="16" rx="0"/></clipPath></defs><g clip-path="url(#master_svg0_1_02869)"><g><path d="M8.021270937499999,1.005859375C8.4735809375,1.005859375,8.7861209375,1.173567375,9.0961509375,1.341276375C9.4087109375,1.508984375,14.7958609375,4.398229375,15.0016609375,4.515119374999999C15.2074609375,4.629469375,15.4692609375,4.748889375,15.5175609375,5.150409375C15.5556609375,5.455339375,15.3650609375,5.709449375,15.2024609375,5.805989375C15.0016609375,5.922909375,8.6438609375,9.615129375,8.443100937499999,9.724399375C8.3058809375,9.798089375,8.1940609375,9.856529375,8.021270937499999,9.856529375C7.8688009375,9.856529375,7.7239709375,9.795539375,7.6324809375,9.742159375C7.5156009375,9.673569375,1.0865939375,5.948309375,0.9137899375,5.849199375C0.7410039374999999,5.752649375,0.5199350075,5.559519375,0.5224828192,5.180899375C0.5224828192,4.870869375,0.7257709375,4.677749374999999,0.9798729374999999,4.540549374999999C1.1704579375000002,4.4388893750000005,6.7126009375,1.453094375,7.0023009375,1.3057153750000001C7.2894309375,1.160865375,7.5613209375,1.005860080862,8.021270937499999,1.005859375Z" fill="#FFFFFF" fill-opacity="1"/></g><g><path d="M1.504236078125,6.630788188671875C1.3469210781249998,6.541981348671875,1.3063240781249998,6.503910888671875,1.032307078125,6.630788188671875C0.913044078125,6.684068888671875,0.507080078125,6.846454888671875,0.507080078125,7.3894358886718745C0.507080078125,7.782695888671875,0.8394650781249999,7.950175888671875,0.9612730781250001,8.021205888671876C1.083044078125,8.092255888671875,7.048190078125,11.548045888671876,7.334890078125,11.712955888671875C7.624140078125,11.877865888671874,7.776380078125,11.992045888671875,7.979380078125,11.992045888671875C8.182380078125,11.992045888671875,8.486820078125,11.827125888671876,8.661890078125,11.728185888671874C8.834420078125,11.626675888671876,14.746280078125,8.206435888671875,14.984780078125,8.064345888671875C15.223280078125,7.924805888671875,15.482080078125,7.795395888671875,15.504980078125,7.391979888671875C15.527780078125,6.988541888671875,15.365380078125,6.843928888671875,15.104080078125,6.694208888671875C14.845280078125,6.544524968671875,14.695580078125,6.577507488671875,14.398680078125,6.717050888671875C13.802380078125,6.996173888671875,10.268010078125,9.307605888671874,9.618450078125,9.637465888671874C8.316840078125,10.302215888671874,8.197580078125,10.302215888671874,8.014910078125,10.302215888671874C7.855050078125,10.302215888671874,7.619090078125,10.266695888671876,6.497610078125,9.678045888671875C5.855670078125,9.345675888671876,1.643800078125,6.709436888671875,1.504236078125,6.630788188671875Z" fill="#FFFFFF" fill-opacity="1"/></g><g><path d="M1.1792816015624998,8.8627531265625C1.0220896015625,8.9033130265625,0.8750826015625,8.9970867265625,0.7711416015625,9.0680757265625C0.5937060015625,9.1846727265625,0.5100444615625,9.4204427265625,0.5049611055625,9.6232417265625C0.4922884015625,9.9882797265625,0.7534036015625,10.1784097265625,0.9283156015625,10.2772697265625C1.1032276015625,10.3786697265625,7.1238266015625,13.8668097265625,7.3621166015625,14.003719726562501C7.6004066015625,14.140599726562499,7.7601066015625,14.2673397265625,7.9958566015625,14.2673397265625C8.2316166015625,14.2673397265625,8.4217366015625,14.1380597265625,8.6524266015625,14.0036897265625C8.8805866015625,13.869339726562501,14.7161166015625,10.4927397265625,14.9696166015625,10.3406297265625C15.2231166015625,10.1910797265625,15.5045166015625,9.9907997265625,15.5045166015625,9.6384547265625C15.5045166015625,9.2860887265625,15.4031166015625,8.9945447265625,14.9696166015625,8.9007702265625C14.8783166015625,8.8804720265625,14.7009166015625,8.9540027265625,14.5691166015625,9.0275157265625C14.3587166015625,9.1415877265625,9.0073166015625,12.1125897265625,8.8019866015625,12.2216097265625C8.5434166015625,12.3610297265625,8.0719166015625,12.6424097265625,8.0060066015625,12.6424097265625C7.9426266015625,12.6424097265625,7.4711366015625,12.3635497265625,7.3037966015625,12.264699726562501C7.0807566015625,12.1328897265625,1.8256966015625,9.0046947265625,1.7242966015625,8.9463958265625C1.6254366015625,8.8880798265625,1.3415216015625,8.8221926265625,1.1792816015624998,8.8627531265625Z" /></g></g></svg>