<svg xmlns="http://www.w3.org/2000/svg" xmlns:xlink="http://www.w3.org/1999/xlink" fill="currentColor" version="1.1" width="16" height="16" viewBox="0 0 16 16"><defs><clipPath id="master_svg0_1_02826"><rect x="0" y="0" width="16" height="16" rx="0"/></clipPath></defs><g clip-path="url(#master_svg0_1_02826)"><g><path d="M14.3533,1.60569L15.728,4.36456C15.9053,4.72116,15.999,5.10929,16.0027,5.50274L16.0027,5.59336C16.0634,7.23505,14.6943,8.6126,12.9433,8.67162C10.8599,7.10644,8.0739,6.6345,5.53801,7.41719C5.42039,7.57812,5.28643,7.72799,5.13801,7.86471C4.51972,8.43972,3.66299,8.73069,2.79534,8.66037C1.14655,8.43247,-0.0562168,7.0793,0.00200667,5.51774C0.00179713,5.11632,0.0953195,4.71973,0.276006,4.35581L1.64734,1.60569C2.10095,0.640408,3.11433,0.0126416,4.23934,0L11.7613,0C12.8866,0.0118547,13.9004,0.639877,14.3533,1.60569ZM5.53736,8.4679C6.69985,10.1402,9.31222,10.1402,10.4747,8.4679C11.0249,9.2432,11.9488,9.71291,12.942,9.72232C13.6823,9.71913,14.3938,9.45366,14.934,8.97917L14.934,12.1874C14.9839,13.6893,13.7297,14.9464,12.128,15L3.8807,15C2.27891,14.9468,1.0245,13.6894,1.0747,12.1874L1.0747,8.95667C1.54091,9.38276,2.14704,9.64861,2.7947,9.71107C3.66234,9.7814,4.51907,9.49042,5.13736,8.91541C5.28563,8.77856,5.41958,8.6287,5.53736,8.4679Z" fill-rule="evenodd" /></g></g></svg>