<svg xmlns="http://www.w3.org/2000/svg" xmlns:xlink="http://www.w3.org/1999/xlink" fill="currentColor" version="1.1" width="1" height="1" viewBox="0 0 16 16"><g><path d="M15.0862,0L0.913778,0C0.408889,0,0,0.478793,0,1.07L0,12.3112C0,12.9024,0.408889,13.3812,0.913778,13.3812L15.0844,13.3812C15.5893,13.3812,15.9982,12.9024,15.9982,12.3112L15.9982,1.07C16,0.480874,15.5911,0,15.0862,0ZM13.2178,4.72339L9.28178,9.33437C9.20533,9.42389,9.104,9.46969,9.00267,9.46969C8.90133,9.46969,8.80178,9.42389,8.72356,9.33437L5.95733,6.09316L3.33867,9.15951C3.18578,9.34062,2.93511,9.34062,2.78222,9.15951C2.62756,8.98048,2.62756,8.68696,2.78222,8.50794L5.68,5.11475C5.83289,4.93365,6.08356,4.93365,6.23644,5.11475L9.00445,8.35389L12.6613,4.07182C12.8142,3.89071,13.0649,3.89071,13.2178,4.07182C13.3724,4.25085,13.3724,4.54437,13.2178,4.72339ZM15.4667,14.6677L0.533333,14.6677C0.238222,14.6677,0,14.9654,0,15.3339C0,15.7023,0.238222,16,0.533333,16L15.4667,16C15.7618,16,16,15.7023,16,15.3339C16,14.9654,15.7618,14.6677,15.4667,14.6677Z" /></g></svg>