<svg xmlns="http://www.w3.org/2000/svg" xmlns:xlink="http://www.w3.org/1999/xlink" fill="currentColor" version="1.1" width="1" height="1" viewBox="0 0 16 16"><defs><clipPath id="master_svg0_1_02894"><rect x="0" y="0" width="16" height="16" rx="0"/></clipPath></defs><g clip-path="url(#master_svg0_1_02894)"><g><path d="M14.453,2.575C14.808,2.925,14.99,3.362,15,3.887L15,13.133C14.99,13.658,14.808,14.098,14.453,14.453C14.1045,14.8055,13.6287,15.0027,13.133,15L2.8670299999999997,15C2.3712999999999997,15.0029,1.895375,14.8057,1.547025,14.453C1.1946080000000001,14.1045,0.99743805,13.6287,1.000025177,13.133L1.000025177,3.888C1.0100252,3.363,1.1920250000000001,2.925,1.547025,2.576C1.902025,2.226,2.3420300000000003,2.041,2.8670299999999997,2.021L5.01003,2.021L5.01003,3.057C5.02002,3.338,5.10703,3.562,5.27303,3.727C5.43802,3.893,5.66102,3.98,5.94302,3.99L10.05503,3.99C10.33702,3.98,10.56102,3.893,10.72602,3.728C10.89202,3.562,10.97902,3.339,10.98903,3.057L10.98903,2.02L13.132,2.02C13.658,2.04,14.098,2.224,14.452,2.574L14.453,2.575ZM10.89503,12.448C10.99399,12.3255,11.0292,12.1635,10.99002,12.011C10.84402,11.583,10.62302,11.245,10.32603,10.998C10.04348,10.75538,9.68536,10.61857,9.31302,10.611L9.12302,10.611C8.775030000000001,10.78886,8.390799999999999,10.88432,8.00002,10.89C7.63102,10.89,7.25703,10.797,6.87703,10.612L6.68703,10.612C5.87546,10.64553,5.18743,11.2196,5.00903,12.012C4.96903,12.206,5.00203,12.364,5.10403,12.486C5.19317,12.601,5.33054,12.6682,5.47603,12.668L10.52103,12.668C10.67268,12.6562,10.81054,12.5755,10.89503,12.449L10.89503,12.448ZM10.05602,1.933L10.05602,2.9539999999999997L6.04602,2.9539999999999997L6.04602,1.9340000000000002C6.04602,1.6520000000000001,6.12802,1.426,6.29303,1.255C6.45902,1.085,6.68703,1,6.97902,1L9.02102,1C9.31102,1,9.54102,1.085,9.70702,1.255C9.87202,1.425,9.95402,1.651,9.95402,1.933L10.05602,1.933ZM6.60002,6.732C6.24003,7.11,6.05503,7.562,6.04502,8.087C6.05503,8.622,6.24903,9.08,6.62802,9.458C7.00802,9.837,7.46502,10.036,7.99802,10.057C8.53302,10.047,8.991019999999999,9.859,9.37002,9.496C9.74802,9.132,9.94302,8.661999999999999,9.95302,8.089C9.95101,7.5821,9.75199,7.09585,9.39802,6.733C9.03802,6.354,8.57202,6.155,7.99802,6.134C7.42602,6.154,6.95902,6.352,6.60002,6.732Z" /></g></g></svg>