<svg xmlns="http://www.w3.org/2000/svg" xmlns:xlink="http://www.w3.org/1999/xlink" fill="currentColor" version="1.1" width="1" height="1" viewBox="0 0 16 16"><defs><clipPath id="master_svg0_1_02846"><rect x="0" y="0" width="16" height="16" rx="0"/></clipPath></defs><g clip-path="url(#master_svg0_1_02846)"><g><path d="M11.107214765624999,6.095703125C8.421544765625,6.095703125,6.244384765625,8.272863125,6.244384765625,10.958533124999999C6.244384765625,13.644203125,8.421544765625,15.821363125,11.107214765624999,15.821363125C13.792884765625,15.821363125,15.970044765625,13.644203125,15.970044765625,10.958533124999999C15.970044765625,8.272863125,13.792884765625,6.095703125,11.107214765624999,6.095703125ZM9.851484765624999,7.649853125C10.446364765624999,7.649853125,10.928604765625,8.132093125,10.928604765625,8.726973125C10.928604765625,9.321843125000001,10.446364765624999,9.804093125,9.851484765624999,9.804093125C9.256604765625,9.804093125,8.774364765625,9.321843125000001,8.774364765625,8.726973125C8.773764765625,8.131843125,9.256354765625,7.649243125,9.851484765624999,7.649853125ZM11.876124765625,14.269393125C11.280994765625,14.270003125,10.798394765625,13.787403125,10.799004765625,13.192273125C10.788424765624999,12.593073125,11.276914765625001,12.104583125000001,11.876124765625,12.115153124999999C12.470994765625,12.115163124999999,12.953244765625,12.597403125,12.953244765625,13.192273125C12.953244765625,13.787153125,12.470994765625,14.269393125,11.876124765625,14.269393125ZM8.966044765625,13.811973125L8.168824765625,13.013663125L13.239674765625,7.942813125L14.036894765625,8.740033125L8.966044765625,13.811973125Z" /></g><g><path d="M12.0035375,2.9694213671875Q12.0035375,3.0423413671875,11.9963375,3.1151813671875Q11.9891375,3.1880113671875,11.9747375,3.2605813671875Q11.9602375,3.3331513671875,11.9387375,3.4052913671875Q11.9171375,3.4774213671875,11.8884375,3.5489413671875Q11.8597375,3.6204613671875,11.8240375,3.6912013671875Q11.7883375,3.7619313671875,11.7456375,3.8317213671875Q11.7029375,3.9015013671875,11.6533375,3.9701613671875Q11.6038375,4.0388213671875,11.5475375,4.1061913671875Q11.4913375,4.1735613671875,11.4284375,4.2394813671875Q11.3655375,4.3054013671875,11.2962375,4.3697113671875Q11.2269375,4.4340213671875,11.1513375,4.4965713671875Q11.0757375,4.5591213671875,10.9940375,4.6197513671875Q10.9123375,4.6803813671875,10.8247375,4.7389613671875Q10.7371375,4.7975313671875,10.6438375,4.8539013671875Q10.5505375,4.9102713671875,10.4518375,4.9643013671875Q10.3530375,5.0183313671875,10.2491375,5.0698913671875Q10.1451375,5.1214613671875,10.0361375,5.1704313671875Q9.9271975,5.2194013671875,9.8135375,5.2656613671875Q9.6998675,5.3119213671875,9.5817575,5.3553613671875Q9.4636475,5.3988013671875,9.3413775,5.4393213671875Q9.2191175,5.4798313671875,9.0929875,5.5173213671875Q8.9668575,5.5548113671875,8.8371775,5.5891813671875Q8.7074875,5.6235613671875,8.5745575,5.6547413671875Q8.4416275,5.6859213671875,8.3057775,5.7138213671875Q8.1699275,5.7417313671875,8.0314675,5.7662913671875Q7.8930175,5.7908613671875,7.7523075,5.8120313671875Q7.6115875,5.8332013671875,7.4689475,5.8509213671875Q7.3263075,5.8686313671875,7.1820875,5.8828613671875Q7.0378675,5.8970913671875,6.8924075,5.9077913671875Q6.7469575,5.9184913671875,6.6006175,5.9256413671875Q6.4542775,5.9327813671875,6.3074075,5.9363613671875Q6.1605375,5.9399413671875,6.0134875,5.9399413671875Q5.8664375,5.9399413671875,5.7195675,5.9363613671875Q5.5726975,5.9327813671875,5.4263575,5.9256413671875Q5.2800175,5.9184913671875,5.1345675,5.9077913671875Q4.9891075,5.8970913671875,4.8448875,5.8828613671875Q4.7006675,5.8686313671875,4.5580275,5.8509213671875Q4.4153875,5.8332013671875,4.2746675,5.8120313671875Q4.1339475,5.7908613671875,3.9954975,5.7662913671875Q3.8570475,5.7417313671875,3.7211975,5.7138213671875Q3.5853375,5.6859213671875,3.4524075,5.6547413671875Q3.3194775,5.6235613671875,3.1897975,5.5891813671875Q3.0601175,5.5548113671875,2.9339875,5.5173213671875Q2.8078575,5.4798313671875,2.6855975,5.4393213671875Q2.5633275,5.3988013671875,2.4452175,5.3553613671875Q2.3271075,5.3119213671875,2.2134375,5.2656613671875Q2.0997675,5.2194013671875,1.9908175,5.1704313671875Q1.8818575,5.1214613671875,1.7778775,5.0698913671875Q1.6739075,5.0183313671875,1.5751575,4.9643013671875Q1.4763975,4.9102713671875,1.3831175,4.8539013671875Q1.2898275,4.7975313671875,1.2022375,4.7389613671875Q1.1146375,4.6803813671875,1.0329475,4.6197513671875Q0.9512475,4.5591213671875,0.8756505,4.4965713671875Q0.8000525,4.4340213671875,0.7307345,4.3697113671875Q0.6614175,4.3054013671875,0.5985465,4.2394813671875Q0.5356755,4.1735613671875,0.4794025,4.1061913671875Q0.4231305,4.0388213671875,0.3735915,3.9701613671875Q0.3240525,3.9015013671875,0.2813665,3.8317213671875Q0.2386815,3.7619313671875,0.2029515,3.6912013671875Q0.1672225,3.6204613671875,0.1385345,3.5489413671875Q0.1098471,3.4774213671875,0.0882707,3.4052913671875Q0.0666944,3.3331513671875,0.0522812,3.2605813671875Q0.0378681,3.1880113671875,0.03065278,3.1151813671875Q0.0234375,3.0423413671875,0.0234375,2.9694213671875Q0.0234375,2.8965013671875,0.03065278,2.8236613671875Q0.0378681,2.7508313671875,0.0522812,2.6782613671875Q0.0666944,2.6056913671875,0.0882707,2.5335513671875Q0.1098471,2.4614213671875,0.1385345,2.3899013671875Q0.1672225,2.3183813671875,0.2029515,2.2476413671875Q0.2386815,2.1769113671875,0.2813675,2.1071213671875Q0.3240525,2.0373413671875,0.3735915,1.9686813671875Q0.4231305,1.9000213671875,0.4794025,1.8326513671875Q0.5356755,1.7652813671875,0.5985465,1.6993613671875Q0.6614175,1.6334413671875,0.7307345,1.5691313671875Q0.8000525,1.5048113671875,0.8756495,1.4422713671875Q0.9512475,1.3797213671875,1.0329475,1.3190913671875Q1.1146375,1.2584513671875,1.2022375,1.1998813671875Q1.2898275,1.1413113671875,1.3831175,1.0849413671875Q1.4763975,1.0285713671875,1.5751575,0.9745423671875Q1.6739075,0.9205103671875,1.7778775,0.8689463671875Q1.8818575,0.8173823671875,1.9908175,0.7684113671875Q2.0997675,0.7194393671875,2.2134375,0.6731783671875Q2.3271075,0.6269173671875,2.4452175,0.5834773671875Q2.5633275,0.5400373671875,2.6855975,0.49952436718750004Q2.8078575,0.4590103671875,2.9339875,0.4215213671875Q3.0601175,0.3840313671875,3.1897975,0.3496563671875Q3.3194775,0.3152813671875,3.4524075,0.2841033671875Q3.5853375,0.2529243671875,3.7211975,0.2250183671875Q3.8570475,0.1971123671875,3.9954975,0.1725453671875Q4.1339475,0.1479793671875,4.2746675,0.1268113671875Q4.4153875,0.1056423671875,4.5580275,0.0879241671875Q4.7006675,0.0702054671875,4.8448875,0.0559790671875Q4.9891075,0.0417526671875,5.1345675,0.031052767187499997Q5.2800175,0.0203528671875,5.4263575,0.0132052671875Q5.5726975,0.0060576071875,5.7195675,0.0024794871875Q5.8664375,-0.0010986328125,6.0134875,-0.0010986328125Q6.1605375,-0.0010986328125,6.3074075,0.0024794871875Q6.4542775,0.0060576071875,6.6006175,0.0132052671875Q6.7469575,0.0203528671875,6.8924075,0.031052767187499997Q7.0378675,0.0417526671875,7.1820875,0.0559790671875Q7.3263075,0.0702054671875,7.4689475,0.0879241671875Q7.6115875,0.1056423671875,7.7523075,0.1268113671875Q7.8930175,0.1479793671875,8.0314775,0.1725463671875Q8.1699275,0.1971123671875,8.3057775,0.2250183671875Q8.4416375,0.2529243671875,8.5745675,0.2841033671875Q8.7074975,0.3152813671875,8.8371775,0.3496563671875Q8.9668575,0.3840313671875,9.0929875,0.4215213671875Q9.2191175,0.4590103671875,9.3413775,0.49952436718750004Q9.4636475,0.5400373671875,9.5817575,0.5834773671875Q9.6998675,0.6269173671875,9.8135375,0.6731783671875Q9.9271975,0.7194393671875,10.0361375,0.7684113671875Q10.1451375,0.8173823671875,10.2491375,0.8689463671875Q10.3530375,0.9205103671875,10.4518375,0.9745423671875Q10.5505375,1.0285713671875,10.6438375,1.0849413671875Q10.7371375,1.1413113671875,10.8247375,1.1998813671875Q10.9123375,1.2584513671875,10.9940375,1.3190913671875Q11.0757375,1.3797213671875,11.1513375,1.4422713671875Q11.2269375,1.5048113671875,11.2962375,1.5691313671875Q11.3655375,1.6334413671875,11.4284375,1.6993613671875Q11.4913375,1.7652813671875,11.5475375,1.8326513671875Q11.6038375,1.9000213671875,11.6533375,1.9686813671875Q11.7029375,2.0373413671875,11.7456375,2.1071213671875Q11.7883375,2.1769113671875,11.8240375,2.2476413671875Q11.8597375,2.3183813671875,11.8884375,2.3899013671875Q11.9171375,2.4614213671875,11.9387375,2.5335513671875Q11.9602375,2.6056913671875,11.9747375,2.6782613671875Q11.9891375,2.7508313671875,11.9963375,2.8236613671875Q12.0035375,2.8965013671875,12.0035375,2.9694213671875Z" /></g><g><path d="M6.01348826171875,8.173701689453125C6.17467826171875,8.173701689453125,6.33150826171875,8.167171689453125,6.48942826171875,8.161721689453124C6.86067826171875,7.586481689453125,7.34180826171875,7.090161689453125,7.90525826171875,6.701241689453125C7.28135826171875,6.803801689453125,6.65011826171875,6.855151689453125,6.01784826171875,6.854801689453125C3.16766826171875,6.854801689453125,0.79016526171875,5.865901689453125,0.18244726171875,4.543731689453125C0.08470166171875,4.749801689453125,0.03268761171875,4.974576689453125,0.02997356652875,5.202637689453125C0.02561660171875,6.843911689453125,2.70588826171875,8.173701689453125,6.01348826171875,8.173701689453125Z" /></g><g><path d="" /></g><g><path d="M11.84885162109375,4.5447998046875C11.56336462109375,5.0805508046875,11.12261262109375,5.5175068046875,10.58441162109375,5.7983498046875C10.66936152109375,5.7983498046875,10.75322262109375,5.7852798046875,10.83926162109375,5.7852798046875C11.17453862109375,5.7857898046875,11.50898662109375,5.8186198046875,11.83796162109375,5.8832998046875C12.05223162109375,5.4637598046875,12.05627162109375,4.9677738046875,11.84885162109375,4.5447998046875Z" /></g><g><path d="M6.013504765625,8.8108172265625C3.163334765625,8.8108172265625,0.785825765625,7.8219172265625,0.178108765625,6.4986572265625C0.080362865625,6.7047272265625,0.028348855625,6.9295022265625,0.025634765625,7.1575632265625C0.025634765625,8.752007226562501,2.557794765625,10.0480372265625,5.734694765625,10.1210072265625C5.808844765625,9.6667272265625,5.944024765625,9.2245372265625,6.136574765625,8.8064572265625L6.014594765625,8.8064572265625L6.013504765625,8.8108172265625Z" /></g><g><path d="M5.6704175,10.758122763671874C2.9738075,10.682972763671875,0.7564015,9.724562763671875,0.1759115,8.453582763671875C0.0781656,8.659652763671875,0.02615158,8.884427763671875,0.0234375,9.112488763671875C0.0234375,10.715642763671875,2.5849975,12.018202763671875,5.7869575,12.077022763671875C5.7051575,11.709412763671875,5.6635275,11.334012763671875,5.6627975,10.957422763671875C5.6627975,10.889902763671875,5.6693275,10.824552763671875,5.6715075,10.757032763671875L5.6704175,10.758122763671874Z" /></g><g><path d="M6.0134788671875,14.03848693359375C6.2312988671875,14.03848693359375,6.4545588671875,14.03195693359375,6.6669388671875,14.01997693359375C6.3757688671875,13.62175693359375,6.1432388671875,13.18383693359375,5.9764488671875,12.71958693359375C3.1447888671875,12.71196693359375,0.7770848671875,11.72632693359375,0.1748128671875,10.40960693359375C0.0770669671875,10.61567593359375,0.0250529571875,10.84045193359375,0.0223388671875,11.06851193359375C0.0256061671875,12.70869693359375,2.7058788671875,14.03848693359375,6.0134788671875,14.03848693359375Z" /></g><g><path d="M7.19514962890625,14.61462572265625C6.81395962890625,14.652745722656249,6.42079962890625,14.67452572265625,6.01673962890625,14.67452572265625C3.16656962890625,14.67452572265625,0.78906062890625,13.68562572265625,0.18134362890625,12.36236572265625C0.08359782890625,12.56843672265625,0.03158375890625,12.79321072265625,0.02886962890625,13.02127072265625C0.02886962890625,14.66145572265625,2.70914962890625,15.99233572265625,6.01891962890625,15.99233572265625C6.93103962890625,15.99470572265625,7.83998962890625,15.88497572265625,8.72532962890625,15.66560572265625C8.15734962890625,15.40909572265625,7.64070962890625,15.05150572265625,7.20058962890625,14.61026572265625L7.19514962890625,14.61462572265625Z" /></g><g><path d="M11.87830676953125,12.77949340816875C11.65018776953125,12.77766113046875,11.46479491953125,12.96305398046875,11.46662719723125,13.19117298046875C11.47069457953125,13.41683098046875,11.65264876953125,13.59878498046875,11.87830676953125,13.60285298046875C12.10567176953125,13.60285298046875,12.28998676953125,13.41853798046875,12.28998676953125,13.19117298046875C12.28998676953125,12.96380898046875,12.10567176953125,12.77949340816875,11.87830676953125,12.77949340816875Z" /></g><g><path d="M9.85474719921875,8.315290527309376C9.62662819921875,8.313458249609376,9.44123534921875,8.498851099609375,9.44306762691875,8.726970099609375C9.44713500921875,8.952628099609376,9.62908919921875,9.134582099609375,9.85474719921875,9.138650099609375C10.08211219921875,9.138650099609375,10.26642719921875,8.954335099609375,10.26642719921875,8.726970099609375C10.26642719921875,8.499606099609375,10.08211219921875,8.315290527309376,9.85474719921875,8.315290527309376Z" /></g></g></svg>