<svg xmlns="http://www.w3.org/2000/svg" xmlns:xlink="http://www.w3.org/1999/xlink" fill="currentColor" version="1.1" width="1" height="1" viewBox="0 0 16 16"><defs><clipPath id="master_svg0_1_02860"><rect x="0" y="0" width="16" height="16" rx="0"/></clipPath></defs><g clip-path="url(#master_svg0_1_02860)"><g><path d="M8.21976701171875,0.42883265L13.71268701171875,2.48868625C14.01888701171875,2.60347625,14.22188701171875,2.89613625,14.22198701171875,3.22316625L14.22198701171875,9.48668625C14.22198701171875,11.11000625,13.38568701171875,12.61890625,12.00908701171875,13.47930625L8.360227011718749,15.75960625C8.10576701171875,15.91870625,7.78289701171875,15.91870625,7.52843701171875,15.75960625L3.87955701171875,13.47930625C2.50296101171875,12.61890625,1.66668701171875,11.11000625,1.66668701171875,9.48668625L1.66668701171875,3.22316625C1.66680986171875,2.89613625,1.86973801171875,2.60347625,2.17596101171875,2.48868625L7.66889701171875,0.42883265C7.84648701171875,0.36226405,8.04217701171875,0.36226405,8.21976701171875,0.42883265ZM7.94433701171875,10.13407625C7.29425701171875,10.13407625,6.76727701171875,10.66110625,6.76727701171875,11.31110625C6.76727701171875,11.96120625,7.29425701171875,12.48820625,7.94433701171875,12.48820625C8.59440701171875,12.48820625,9.121387011718749,11.96120625,9.121387011718749,11.31110625C9.121387011718749,10.66110625,8.59440701171875,10.13407625,7.94433701171875,10.13407625ZM9.06096701171875,3.46407625L6.82769701171875,3.46407625L6.77197701171875,3.46799625C6.58393701171875,3.49444625,6.44182701171875,3.65176625,6.43455701171875,3.84151625L6.43926701171875,3.91214625L7.11175701171875,8.62037625C7.13576701171875,8.78659625,7.26290701171875,8.91909625,7.42799701171875,8.94994625L7.50018701171875,8.95701625L8.38847701171875,8.95701625C8.55686701171875,8.95710625,8.706537011718751,8.84974625,8.76042701171875,8.69021625L8.77690701171875,8.61958625L9.44939701171875,3.91135625C9.47894701171875,3.70289625,9.33869701171875,3.50826625,9.13159701171875,3.47034625L9.06096701171875,3.46407625Z" /></g></g></svg>