<svg xmlns="http://www.w3.org/2000/svg" xmlns:xlink="http://www.w3.org/1999/xlink" fill="currentColor" version="1.1" width="1" height="1" viewBox="0 0 16 16"><g><path d="M7.94034,16C3.56206,16,0,12.4111,0,7.99989C0,3.58868,3.56206,0.0000380415,7.94034,0C7.18196,0,6.49369,0.485946,5.92999,1.33475C4.00336,1.92572,2.43078,3.34323,1.62088,5.17542L4.61179,5.17542C4.8623,3.57801,5.32423,2.24687,5.92999,1.33475L7.94034,0L7.94041,0C11.9369,0,15.3237,3.00858,15.819,6.9979C15.8543,7.28138,15.6546,7.54003,15.3734,7.57536C15.0923,7.61053,14.8355,7.40969,14.8002,7.12641C14.7614,6.81356,14.7021,6.50763,14.6239,6.20992L11.395,6.20992C11.4186,6.45934,11.4375,6.71413,11.4515,6.97387C11.4667,7.25919,11.2498,7.50305,10.9666,7.5184C10.6846,7.5358,10.4416,7.31495,10.4263,7.03004C10.4111,6.74837,10.3899,6.47487,10.3631,6.20992L5.51598,6.20992C5.45928,6.77364,5.42832,7.37223,5.42832,7.99991C5.42832,8.52856,5.45012,9.03653,5.49065,9.52037L7.2225,9.52037C7.50608,9.52037,7.73588,9.75193,7.73588,10.0376C7.73588,10.3233,7.50606,10.5549,7.2225,10.5549L5.61039,10.5549C6.01811,13.2853,7.04277,15.0173,7.9843,14.9637C8.03271,14.9509,8.08789,14.9369,8.21352,14.9279C8.22932,14.9269,8.24499,14.9265,8.2605,14.9269C8.28011,14.9273,8.29947,14.9289,8.3185,14.9314C8.557,14.9636,8.74462,15.1583,8.7618,15.4078C8.76276,15.4217,8.76316,15.4355,8.76303,15.4492C8.76284,15.4705,8.76134,15.4917,8.75858,15.5125C8.74791,15.5931,8.71847,15.6693,8.67379,15.7354C8.63241,15.7966,8.57796,15.849,8.51327,15.888C8.46731,15.9158,8.41654,15.9365,8.3623,15.9487C8.26318,15.973,8.16257,15.9887,8.06166,15.9958C8.02665,15.9985,7.98722,16,7.94041,16L7.94034,16ZM4.45991,9.52037C4.42149,9.0306,4.4015,8.52261,4.4015,7.99989C4.4015,7.38062,4.42955,6.78203,4.48308,6.20992L1.25814,6.20992C1.10723,6.7813,1.02678,7.38131,1.02678,7.99989C1.02678,8.5449,1.08922,9.0755,1.20728,9.58479C1.28087,9.54374,1.36553,9.52037,1.45562,9.52037L4.45991,9.52037ZM1.50841,10.5549L4.57189,10.5549C4.81127,12.2722,5.2905,13.7023,5.93004,14.6653C3.9099,14.0456,2.279,12.5172,1.50841,10.5549ZM5.65451,5.17542L10.2245,5.17542C9.78534,2.57698,8.79348,1.03452,7.94034,1.03452C7.04985,1.03452,6.08296,2.64175,5.65451,5.17542ZM11.2659,5.17542L14.2624,5.17542C13.4498,3.33243,11.8692,1.9247,9.95285,1.33599C10.5537,2.24264,11.0141,3.56749,11.2659,5.17542ZM15.2956,11.9666C15.2998,11.9884,15.3132,12.0196,15.3516,12.0373C15.4921,12.1038,15.6709,12.2032,15.8063,12.3876C15.9158,12.5367,16.0345,12.7902,15.9718,13.149C15.93,13.3865,15.8447,13.736,15.5831,14.035C15.3122,14.3415,14.9568,14.4541,14.5883,14.3617C14.5546,14.3533,14.5218,14.3435,14.4907,14.3342C14.3896,14.3041,14.308,14.2797,14.2807,14.3272C14.2616,14.3605,14.2841,14.4443,14.2924,14.4628C14.4805,14.8856,14.3384,15.3682,13.948,15.636C13.6705,15.8255,13.3604,15.9442,13.0252,15.9889C12.9842,15.9939,12.9441,15.9964,12.9048,15.9964C12.5512,15.9964,12.2397,15.7836,12.0764,15.4179C12.0295,15.3127,12.0222,15.253,11.9481,15.2477C11.865,15.2418,11.8286,15.3544,11.8162,15.3926C11.815,15.3965,11.8139,15.3997,11.8131,15.4019C11.6443,15.8356,11.2088,16.0655,10.739,15.9771C10.3403,15.9021,10.0209,15.7623,9.76264,15.5492C9.55951,15.3816,9.44414,15.1888,9.40736,14.9589C9.37394,14.7517,9.42744,14.5799,9.47091,14.4687C9.49348,14.4089,9.51521,14.35,9.51354,14.3146C9.45252,14.3196,9.35304,14.3398,9.24021,14.366C8.86154,14.4535,8.51298,14.3238,8.2814,14.0173C8.05574,13.7183,7.92784,13.3797,7.90192,13.01C7.87182,12.5738,8.07246,12.231,8.4528,12.0701C8.55979,12.0247,8.62169,11.9716,8.61662,11.9286C8.60665,11.8444,8.53389,11.8444,8.52638,11.8402C7.99556,11.6541,7.81917,11.094,7.92618,10.6401C7.9872,10.3782,8.08169,10.0741,8.31238,9.80799C8.64257,9.429,9.01289,9.46354,9.20514,9.51743C9.33387,9.55448,9.39992,9.56879,9.4509,9.57218C9.51955,9.57485,9.54869,9.54245,9.56337,9.51417C9.57416,9.49341,9.57255,9.47256,9.57098,9.45242C9.57063,9.4478,9.57027,9.44322,9.57007,9.43869Q9.56873,9.40906,9.55538,9.35921C9.54333,9.3174,9.53648,9.28234,9.52696,9.24289C9.43976,8.88162,9.55371,8.54975,9.85632,8.30467C10.1263,8.08571,10.4665,7.95433,10.8945,7.90379C11.284,7.85916,11.605,8.04276,11.7797,8.40994C11.8174,8.49082,11.8402,8.5455,11.8784,8.56829C11.9736,8.62525,12.0445,8.53766,12.0564,8.51019C12.0993,8.4115,12.1642,8.31565,12.237,8.22216C12.4276,7.9754,12.721,7.85582,13.0303,7.90718C13.2743,7.94255,13.6354,8.01917,13.9439,8.27521C14.0534,8.36534,14.2875,8.55651,14.356,8.89086C14.3987,9.10898,14.3376,9.28502,14.2967,9.40208C14.2783,9.45429,14.2724,9.49387,14.2758,9.53515C14.2783,9.56377,14.3259,9.59494,14.3569,9.59494C14.4162,9.59494,14.4714,9.58314,14.5307,9.55871C14.9495,9.38268,15.3616,9.50479,15.6316,9.87958C15.8364,10.1634,15.9551,10.4969,15.9953,10.8978C16.0346,11.2877,15.8289,11.6229,15.4452,11.7956C15.3926,11.8183,15.355,11.8444,15.3232,11.879C15.2923,11.9118,15.2914,11.9447,15.2956,11.9666ZM14.942,13.4632C15.0331,13.3596,15.0908,13.2164,15.1293,12.9999C15.141,12.9317,15.1276,12.9132,15.1184,12.9006C15.0967,12.8719,15.0348,12.8399,14.9897,12.8189C14.7113,12.6875,14.5116,12.4298,14.4547,12.1274C14.3979,11.826,14.489,11.5118,14.6996,11.2878C14.8091,11.1699,14.9446,11.0747,15.1,11.0065C15.1193,10.7395,15.0524,10.5433,14.9387,10.3858L14.8988,10.3343L14.8568,10.3555C14.6787,10.4296,14.4948,10.4548,14.3076,10.4565C13.8537,10.4405,13.465,10.0691,13.4232,9.6118C13.409,9.44337,13.4307,9.28251,13.4892,9.11745L13.5151,9.03406C13.5109,9.03151,13.4282,8.96498,13.4014,8.94224C13.2877,8.84791,13.1406,8.794,12.9066,8.76032C12.8756,8.79822,12.8472,8.84371,12.8263,8.88749C12.6876,9.17216,12.4167,9.37597,12.1008,9.43239C11.799,9.48462,11.5014,9.39872,11.2857,9.19069C11.1428,9.05257,11.0609,8.8976,11.0057,8.77885C10.7265,8.79149,10.5359,8.86054,10.393,8.97678C10.3771,9.10534,10.3853,9.18618,10.3933,9.26529C10.3938,9.26962,10.3942,9.27395,10.3946,9.27827L10.4038,9.44925L10.3896,9.59157C10.3579,10.0581,10.0026,10.4018,9.50608,10.4329C9.32103,10.4468,9.16407,10.4024,9.03526,10.3659C9.03083,10.3647,9.02644,10.3634,9.02207,10.3622C8.86996,10.4759,8.81227,10.6098,8.75878,10.838L8.75846,10.8401C8.75531,10.8591,8.73193,11.0001,8.82146,11.0317C9.02542,11.1033,9.17421,11.2583,9.28122,11.3846C9.50106,11.6474,9.53867,11.9927,9.38404,12.3093C9.26285,12.5578,9.03427,12.7085,8.7847,12.8652C8.77669,12.8702,8.76281,12.8843,8.75914,12.893Q8.75371,12.9061,8.75627,12.9494C8.76964,13.1482,8.83986,13.3318,8.96275,13.4952C8.99116,13.5322,8.9987,13.5381,9.05135,13.5246C9.18594,13.4943,9.32888,13.4648,9.48603,13.4648C9.53941,13.465,9.59273,13.4683,9.64569,13.475C10.0453,13.5289,10.3495,13.8649,10.3679,14.2733C10.378,14.4746,10.3228,14.6397,10.2693,14.7795L10.2434,14.8274L10.3044,14.8823C10.4507,15.0027,10.6388,15.081,10.8954,15.1299C10.9946,15.1446,11.0076,15.1092,11.0151,15.0886L11.0158,15.0869C11.0893,14.9,11.2122,14.7408,11.381,14.6128C11.6686,14.3963,12.0013,14.355,12.3198,14.4982C12.5588,14.6069,12.7386,14.7972,12.8573,15.065C12.8782,15.1113,12.8991,15.1324,12.9049,15.1357C13.1181,15.1063,13.2994,15.0372,13.4675,14.9227C13.4834,14.9117,13.536,14.8705,13.5118,14.8157C13.4391,14.654,13.4115,14.4746,13.4257,14.2666C13.45,13.8927,13.7592,13.5448,14.1295,13.4783C14.3761,13.4345,14.5976,13.4749,14.7991,13.5263C14.8392,13.5372,14.871,13.5448,14.942,13.4632ZM9.91979,11.938C9.91646,10.8187,10.7983,9.92934,11.9277,9.91419C12.4643,9.90829,12.9759,10.1138,13.3613,10.4945C13.7474,10.8751,13.9623,11.3855,13.9664,11.9296C13.9756,13.0404,13.0703,13.9525,11.9486,13.9635L11.9268,13.9635C11.3994,13.9635,10.9003,13.7571,10.5216,13.3798C10.1346,12.9958,9.92146,12.4837,9.91979,11.938ZM11.1227,12.7659C11.3425,12.9857,11.6209,13.1288,11.9402,13.101C12.5914,13.0952,13.1163,12.5722,13.1105,11.9363C13.108,11.623,12.9842,11.3299,12.7619,11.1101C12.5437,10.8945,12.257,10.7766,11.9536,10.7766L11.9385,10.7766C11.2848,10.785,10.7741,11.2945,10.7758,11.9363C10.7766,12.2496,10.8995,12.5443,11.1227,12.7659Z" fill-rule="evenodd" /></g></svg>