<svg xmlns="http://www.w3.org/2000/svg" xmlns:xlink="http://www.w3.org/1999/xlink" fill="currentColor" version="1.1" width="1" height="1" viewBox="0 0 16 16"><defs><clipPath id="master_svg0_1_02903"><rect x="0" y="0" width="16" height="16" rx="0"/></clipPath></defs><g clip-path="url(#master_svg0_1_02903)"><g><path d="M10.3347,3.671572431640625Q10.3347,3.828072431640625,10.3194,3.983812431640625Q10.304,4.139552431640626,10.2735,4.293042431640625Q10.243,4.446532431640625,10.1975,4.596292431640625Q10.1521,4.746052431640625,10.0922,4.890642431640625Q10.0324,5.035222431640625,9.9586,5.173242431640625Q9.88484,5.311262431640625,9.79791,5.441382431640625Q9.71097,5.571502431640625,9.61171,5.692482431640625Q9.51244,5.813452431640625,9.4018,5.924112431640625Q9.29115,6.034772431640625,9.1702,6.134052431640625Q9.04924,6.233332431640625,8.91914,6.320282431640625Q8.78903,6.407232431640625,8.65104,6.481002431640625Q8.51304,6.554772431640625,8.36847,6.614662431640625Q8.22391,6.674552431640625,8.07417,6.719982431640625Q7.92444,6.765412431640625,7.77097,6.795942431640625Q7.6175,6.826472431640625,7.46178,6.841812431640625Q7.30606,6.857152431640625,7.14959,6.857152431640625Q6.99311,6.857152431640625,6.83739,6.841812431640625Q6.68167,6.826472431640625,6.5282,6.795942431640625Q6.37473,6.765412431640625,6.225,6.719982431640625Q6.07526,6.674552431640625,5.9307,6.614662431640625Q5.78613,6.554772431640625,5.64813,6.481002431640625Q5.51014,6.407232431640625,5.38003,6.320282431640625Q5.24993,6.233332431640625,5.12897,6.134052431640625Q5.00802,6.034772431640625,4.89737,5.924112431640625Q4.78673,5.813452431640625,4.68746,5.692482431640625Q4.58819,5.571502431640625,4.50126,5.441382431640625Q4.41433,5.311262431640625,4.34057,5.173242431640625Q4.26681,5.035222431640625,4.20693,4.890642431640625Q4.14705,4.746052431640625,4.10162,4.596292431640625Q4.0562,4.446532431640625,4.02568,4.293042431640625Q3.99515,4.139552431640626,3.97981,3.983812431640625Q3.96447,3.828072431640625,3.96447,3.671572431640625Q3.96447,3.515072431640625,3.97981,3.359332431640625Q3.99515,3.203582431640625,4.02568,3.050092431640625Q4.0562,2.896602431640625,4.10162,2.746842431640625Q4.14705,2.597092431640625,4.20693,2.452502431640625Q4.26681,2.307922431640625,4.34057,2.169902431640625Q4.41433,2.031882431640625,4.50126,1.901762431640625Q4.58819,1.771632431640625,4.68746,1.650662431640625Q4.78673,1.529682431640625,4.89737,1.4190264316406251Q5.00802,1.308366431640625,5.12897,1.209085431640625Q5.24993,1.109804431640625,5.38003,1.022859431640625Q5.51014,0.935913431640625,5.64813,0.8621414316406251Q5.78613,0.788369431640625,5.9307,0.728480431640625Q6.07526,0.668591431640625,6.225,0.623162431640625Q6.37473,0.577733531640625,6.5282,0.547202431640625Q6.68167,0.516671331640625,6.83739,0.501331831640625Q6.99311,0.485992431640625,7.14959,0.485992431640625Q7.30606,0.485992431640625,7.46178,0.501331831640625Q7.6175,0.516671331640625,7.77097,0.547202431640625Q7.92444,0.577733531640625,8.07417,0.623162431640625Q8.22391,0.668591431640625,8.36847,0.728480431640625Q8.51304,0.788369431640625,8.65104,0.8621414316406251Q8.78903,0.935913431640625,8.91914,1.022859431640625Q9.04924,1.109804431640625,9.1702,1.209085431640625Q9.29115,1.308366431640625,9.4018,1.4190264316406251Q9.51244,1.529682431640625,9.61171,1.650662431640625Q9.71097,1.771632431640625,9.79791,1.901762431640625Q9.88484,2.031882431640625,9.9586,2.169902431640625Q10.0324,2.307922431640625,10.0922,2.452502431640625Q10.1521,2.597082431640625,10.1975,2.746842431640625Q10.243,2.896602431640625,10.2735,3.050092431640625Q10.304,3.203582431640625,10.3194,3.359332431640625Q10.3347,3.515072431640625,10.3347,3.671572431640625ZM8.13182,11.572392431640624C8.13182,10.179882431640625,8.66125,8.923032431640625,9.509,7.972452431640625C8.78693,7.735422431640625,8.03202,7.613602431640625,7.27204,7.611482431640625C3.2558,7.611482431640625,1.66911e-7,10.867292431640625,0,14.883492431640626L9.27819,14.883492431640626C8.53763,13.938492431640626,8.13414,12.772992431640626,8.13182,11.572392431640624ZM15.9966,12.385092431640626L15.9999,11.171992431640625Q15.1992,11.013392431640625,15.1861,10.959792431640626C15.1711,10.901092431640626,15.1547,10.842692431640625,15.1369,10.784792431640625Q15.2309,10.610892431640625,15.6816,10.229112431640624L14.7781,9.025852431640624Q14.1929,9.508252431640624,14.0474,9.577162431640625C13.9771,9.549872431640624,13.9056,9.526142431640626,13.833,9.506062431640625Q13.7542,9.486372431640625,13.5365,8.715202431640625L12.3212,8.705352431640625Q12.19,9.452462431640624,11.9931,9.503872431640625C11.9275,9.523562431640626,11.8618,9.547632431640626,11.7962,9.578262431640624Q11.6507,9.507162431640625,11.0655,9.018202431640624L10.1619,10.241142431640625Q10.6148,10.697292431640625,10.6454,10.850392431640625C10.626,10.898692431640624,10.6081,10.947592431640626,10.5918,10.996992431640624C10.3454,11.066692431640625,10.0962,11.125892431640626,9.84473,11.174192431640625L9.84691,12.387292431640626Q10.4901,12.520792431640626,10.6126,12.629092431640625C10.6378,12.699092431640626,10.6673,12.766892431640626,10.6979,12.833592431640625Q10.5492,13.019592431640625,10.1532,13.327992431640626L11.0852,14.541092431640624Q11.817,14.067492431640625,11.9373,14.040192431640625C11.9975,14.066392431640624,12.0576,14.090492431640625,12.12,14.112392431640625Q12.2305,14.150592431640625,12.3081,14.857292431640625L13.5223,14.860592431640624Q13.5628,14.166992431640624,13.6525,14.139692431640626C13.7402,14.112392431640625,13.8264,14.080192431640626,13.9106,14.043392431640624Q14.0124,14.082792431640625,14.4926,14.561892431640626L15.6936,13.338992431640625Q15.2484,13.031592431640625,15.1248,12.865292431640626C15.1587,12.796392431640625,15.1894,12.725292431640625,15.2167,12.653092431640625Q15.255,12.539392431640625,15.9966,12.385092431640626ZM12.9065,13.305092431640626C12.0601,13.305092431640626,11.374,12.618892431640624,11.374,11.772592431640625C11.374,10.926192431640626,12.0601,10.240042431640624,12.9065,10.240042431640624C13.7528,10.240042431640624,14.439,10.926192431640626,14.439,11.772592431640625C14.439,12.618892431640624,13.7528,13.305092431640626,12.9065,13.305092431640626Z" /></g></g></svg>